{"title":"Looper 2012 HDRiP CROP - BLUR AC3 XViD - INSPiRAL","uid":7797906,"size":2075246649,"categoryP":"video","categoryS":"movies","magnet":"?xt=urn:btih:a9d1f41f1d444b51c4ff6538670ba0a6739242dc&amp;dn=Looper+2012+HDRiP+CROP+-+BLUR+AC3+XViD+-+INSPiRAL&amp;tr=udp%3A%2F%2Ftracker.openbittorrent.com%3A80&amp;tr=udp%3A%2F%2Fopen.demonii.com%3A1337&amp;tr=udp%3A%2F%2Ftracker.coppersurfer.tk%3A6969&amp;tr=udp%3A%2F%2Fexodus.desync.com%3A6969","seeders":1,"leechers":0,"uploader":"Gh0stNet","files":4,"time":1352200591,"description":"IMDB:\n &lt;a href=&quot;\nhttp://www.imdb.com/title/tt1276104/&quot; rel=&quot;nofollow&quot; target=&quot;_NEW&quot;&gt;\nhttp://www.imdb.com/title/tt1276104/&lt;/a&gt;\n\n\nSOURCES:\n\nVIDEO - Looper 2012 KORSUB 720p HDRip x264 AC3-JYK THANKS\nAUDIO - Looper 2012 KORSUB 720p HDRip x264 AC3-JYK THANKS\nSUBS - None Add\n\nSTATS:\n\nVideo\nID : 0\nFormat : MPEG-4 Visual\nFormat profile : Advanced Simple@L5\nFormat settings, BVOP : 2\nFormat settings, QPel : No\nFormat settings, GMC : No warppoints\nFormat settings, Matrix : Default (MPEG)\nMuxing mode : Packed bitstream\nCodec ID : XVID\nCodec ID/Hint : XviD\nDuration : 1h 58mn\nBit rate : 2 163 Kbps\nWidth : 720 pixels\nHeight : 256 pixels\nDisplay aspect ratio : 2.813\nFrame rate : 23.976 fps\nColor space : YUV\nChroma subsampling : 4:2:0\nBit depth : 8 bits\nScan type : Progressive\nCompression mode : Lossy\nBits/(Pixel*Frame) : 0.489\nStream size : 1.79 GiB (94%)\nWriting library : XviD 64\n\nAudio\nID : 1\nFormat : AC-3\nFormat/Info : Audio Coding 3\nMode extension : CM (complete main)\nCodec ID : 2000\nDuration : 1h 58mn\nBit rate mode : Constant\nBit rate : 128 Kbps\nChannel(s) : 2 channels\nChannel positions : Front: L R\nSampling rate : 48.0 KHz\nBit depth : 16 bits\nCompression mode : Lossy\nStream size : 109 MiB (6%)\nAlignment : Aligned on interleaves\nInterleave, duration : 42 ms (1.00 video frame)\nInterleave, preload duration : 512 ms\n\n\n\nNOTES:\n\nOk took the 720p file that was pretty nice but had hardcoded korsubs :(....so opted to crop the bottom line and\nblur the top line of subs.Noticed alot of releases did one or the other,so thought i'd give another option for ya.\nAlso tweaked the contrast levels as i thought the video was lacking some aswell as tweaking the rgb colours as it\nwas too pink for me.\nAlso messed with a smoother and sharpen filter aswell....\n\nAudio i had to re-encode as it would open in vdub for some reason ,as when i opened it in xpress,it came up as 5 channels\nbut only the left and right channels had any audio hmmm\nAnyway just encoded to AC3 2 channel and then remuxed to my rip.\n\nRetail will be soon anyway,but what the hell ....here ya go.\n &lt;a href=&quot;\nhttp://old.rapidimg.org/images/rHsZD.png&quot; rel=&quot;nofollow&quot; target=&quot;_NEW&quot;&gt;\nhttp://old.rapidimg.org/images/rHsZD.png&lt;/a&gt; &lt;a href=&quot;\nhttp://old.rapidimg.org/images/xG3v0.png&quot; rel=&quot;nofollow&quot; target=&quot;_NEW&quot;&gt;\nhttp://old.rapidimg.org/images/xG3v0.png&lt;/a&gt; &lt;a href=&quot;\nhttp://old.rapidimg.org/images/w3e6A.png&quot; rel=&quot;nofollow&quot; target=&quot;_NEW&quot;&gt;\nhttp://old.rapidimg.org/images/w3e6A.png&lt;/a&gt; &lt;a href=&quot;\nhttp://old.rapidimg.org/images/YxsWj.png&quot; rel=&quot;nofollow&quot; target=&quot;_NEW&quot;&gt;\nhttp://old.rapidimg.org/images/YxsWj.png&lt;/a&gt; &lt;a href=&quot;\nhttp://old.rapidimg.org/images/Vt2Zs.png&quot; rel=&quot;nofollow&quot; target=&quot;_NEW&quot;&gt;\nhttp://old.rapidimg.org/images/Vt2Zs.png&lt;/a&gt; &lt;a href=&quot;\nhttp://old.rapidimg.org/images/YwmqL.png&quot; rel=&quot;nofollow&quot; target=&quot;_NEW&quot;&gt;\nhttp://old.rapidimg.org/images/YwmqL.png&lt;/a&gt;","torrent":{"xt":"urn:btih:a9d1f41f1d444b51c4ff6538670ba0a6739242dc","amp;dn":"Looper+2012+HDRiP+CROP+-+BLUR+AC3+XViD+-+INSPiRAL","amp;tr":["udp%3A%2F%2Ftracker.openbittorrent.com%3A80","udp%3A%2F%2Fopen.demonii.com%3A1337","udp%3A%2F%2Ftracker.coppersurfer.tk%3A6969","udp%3A%2F%2Fexodus.desync.com%3A6969"],"infoHash":"a9d1f41f1d444b51c4ff6538670ba0a6739242dc","infoHashBuffer":{"type":"Buffer","data":[169,209,244,31,29,68,75,81,196,255,101,56,103,11,160,166,115,146,66,220]},"announce":[],"urlList":[]}}